<?xml version="1.0" encoding="UTF-8" standalone="no"?>
<svg
   viewBox="0 0 191.128 191.1345"
   width="191.12801"
   height="191.13449"
   version="1.1"
   id="svg1364"
   sodipodi:docname="snipify_icon.svg"
   inkscape:version="1.1.1 (3bf5ae0d25, 2021-09-20)"
   xmlns:inkscape="http://www.inkscape.org/namespaces/inkscape"
   xmlns:sodipodi="http://sodipodi.sourceforge.net/DTD/sodipodi-0.dtd"
   xmlns="http://www.w3.org/2000/svg"
   xmlns:svg="http://www.w3.org/2000/svg">
  <sodipodi:namedview
     id="namedview1366"
     pagecolor="#ffffff"
     bordercolor="#666666"
     borderopacity="1.0"
     inkscape:pageshadow="2"
     inkscape:pageopacity="0.0"
     inkscape:pagecheckerboard="0"
     showgrid="false"
     inkscape:zoom="4.3994185"
     inkscape:cx="111.49201"
     inkscape:cy="113.08313"
     inkscape:window-width="2560"
     inkscape:window-height="1377"
     inkscape:window-x="-8"
     inkscape:window-y="-8"
     inkscape:window-maximized="1"
     inkscape:current-layer="g1362" />
  <desc
     id="desc1330">scissors.dxf - scale = 1.0, origin = (0.0, 0.0), method = manual</desc>
  <defs
     id="defs1344">
    <marker
       id="DistanceX"
       orient="auto"
       refX="0"
       refY="0"
       style="overflow:visible">
      <path
         d="M 3,-3 -3,3 M 0,-5 V 5"
         style="stroke:#000000;stroke-width:0.5"
         id="path1332" />
    </marker>
    <pattern
       id="Hatch"
       patternUnits="userSpaceOnUse"
       width="8"
       height="8"
       x="0"
       y="0">
      <path
         d="M8 4 l-4,4"
         stroke="#000000"
         stroke-width="0.25"
         linecap="square"
         id="path1335" />
      <path
         d="M6 2 l-4,4"
         stroke="#000000"
         stroke-width="0.25"
         linecap="square"
         id="path1337" />
      <path
         d="M4 0 l-4,4"
         stroke="#000000"
         stroke-width="0.25"
         linecap="square"
         id="path1339" />
    </pattern>
    <symbol
       id="*MODEL_SPACE" />
    <symbol
       id="*PAPER_SPACE" />
  </defs>
  <g
     inkscape:groupmode="layer"
     inkscape:label="0"
     id="g1362">
    <path
       d="M 191.128,95.567244 A 95.564,95.555272 0 1 0 1.4999994e-6,95.567244 95.564,95.555272 0 1 0 191.128,95.567244 Z"
       style="fill:#1db954;fill-opacity:1;stroke:none;stroke-width:0.872;stroke-miterlimit:4;stroke-dasharray:none"
       id="path1350" />
    <g
       id="g3668"
       transform="translate(-2.9825644e-7,-4.2998476)">
      <path
         d="m 71.499252,106.50878 a 29.657817,29.655083 0 1 0 13.980829,13.97955 L 96,109.9694 l 10.51992,10.51893 a 29.657817,29.655083 0 1 0 13.98083,-13.97955 L 109.98083,95.989841 151.92332,54.05125 A 9.8859496,9.8850382 0 0 0 137.94248,40.071691 Z"
         style="fill:#ffffff;fill-opacity:1;stroke:none;stroke-width:0.871845"
         id="path1346" />
      <path
         d="m 75.194354,133.26863 a 16.476566,16.475046 0 1 0 -32.953131,0 16.476566,16.475046 0 1 0 32.953131,0 z"
         style="fill:#1db954;fill-opacity:1;stroke:none;stroke-width:0.871845"
         id="path1348" />
      <path
         d="m 149.75878,133.26863 a 16.476571,16.475052 0 1 0 -32.95314,0 16.476571,16.475052 0 1 0 32.95314,0 z"
         style="fill:#1db954;fill-opacity:1;stroke:none;stroke-width:0.871845"
         id="path1352" />
      <path
         id="path1360"
         style="fill:#ffffff;fill-opacity:1;stroke:none;stroke-width:0.871845"
         d="M 77.358925,91.325946 91.339723,77.350924 54.057527,40.072126 c -3.860779,-3.860445 -10.119933,-3.860275 -13.980493,-6.6e-5 -3.86056,3.860209 -3.860722,10.118786 -3.48e-4,13.977359 z"
         sodipodi:nodetypes="cccscc" />
    </g>
  </g>
</svg>
